# xmcd
#
# Track frame offsets:
#       150
#       18233
#       25533
#       34881
#       54962
#       66210
#       72033
#       82248
#       96435
#       109739
#       125914
#       144325
#       155968
#       172409
#       183436
#       192584
#       201692
#       212203
#       215074
#       311260
#
# Disc length: 4419 seconds
#
# Revision: 0
# Processed by: cddbd v1.4PL0 Copyright (c) Steve Scherf et al.
# Submitted via: WhereIsIt 3.26
#
DISCID=3c114114
DTITLE=Sandfly - Leishmaniasis
DYEAR=1900
DGENRE=
TTITLE0=Strange Effects
TTITLE1=Leishmaniasis
TTITLE2=Titty Twister
TTITLE3=Good Thrills
TTITLE4=Burnin' Rubber
TTITLE5=18 Wheels On Melting Blacktop
TTITLE6=Cool Fever
TTITLE7=Hot Dog
TTITLE8=Man On The Bridge
TTITLE9=Trailer Home
TTITLE10=Dustbowl
TTITLE11=Welcome To Truth Or Consequences
TTITLE12=Jack Off The Track
TTITLE13=Gone Fishing
TTITLE14=Dust Speakers
TTITLE15=110° and stuck in the desert
TTITLE16=That Ghost Without Saying
TTITLE17=You're Leaving Truth Or Consequences
TTITLE18=Place Of Dead Roads
TTITLE19=Western Frontier
EXTD=
EXTT0=
EXTT1=
EXTT2=
EXTT3=
EXTT4=
EXTT5=
EXTT6=
EXTT7=
EXTT8=
EXTT9=
EXTT10=
EXTT11=
EXTT12=
EXTT13=
EXTT14=
EXTT15=
EXTT16=
EXTT17=
EXTT18=
EXTT19=
PLAYORDER=
